<svg id="Capa_1" data-name="Capa 1" xmlns="http://www.w3.org/2000/svg" xmlns:xlink="http://www.w3.org/1999/xlink" viewBox="0 0 50 40"><defs><style>.cls-1{fill:none;}.cls-2{clip-path:url(#clip-path);}.cls-3{fill:#2a3375;}.cls-4{clip-path:url(#clip-path-2);}.cls-5{fill:#ffe600;}.cls-6{clip-path:url(#clip-path-3);}.cls-7{fill:#fff;}.cls-8{clip-path:url(#clip-path-4);}</style><clipPath id="clip-path"><path class="cls-1" d="M24.94,2.83C11.29,2.87.24,10.18.27,19.13v1c0,9.49,9.73,17.14,24.77,17.08s24.69-7.76,24.68-17.23c0-.34,0-.52,0-1,0-8.9-11.07-16.15-24.67-16.15Z"/></clipPath><clipPath id="clip-path-2"><path class="cls-1" d="M25.14,3.67c-13,0-23.53,7-23.5,15.47S12.22,34.51,25.23,34.47s23.53-7,23.51-15.47S38.21,3.67,25.25,3.67Z"/></clipPath><clipPath id="clip-path-3"><path class="cls-1" d="M13.74,20.85a1.67,1.67,0,0,0,0,3.33,1.76,1.76,0,0,0,1.15-.48,0,0,0,0,1,0,.05,2.2,2.2,0,0,0,1.37,2.51A1.57,1.57,0,0,0,17.87,26c.12-.1.15-.05.12.08a1.56,1.56,0,0,0,1.18,1.66,1.53,1.53,0,0,0,1.75-.33c.15-.13.17-.11.2.1a2.09,2.09,0,0,0,4.17-.1,2.11,2.11,0,0,0-2.11-2.07,6.16,6.16,0,0,0-1.05.25s0-.21.07-.34.67-2-.85-2.62a1.79,1.79,0,0,0-2.11.31c-.07.08-.1.05-.1,0A1.66,1.66,0,0,0,18,21.37a2.27,2.27,0,0,0-2.58.93,1.64,1.64,0,0,0-1.62-1.45ZM1.38,17.23a13.15,13.15,0,0,0,1.42.37c6.75,1.49,8.88,3,9.24,3.37a2.22,2.22,0,0,1,3.51.19,2.39,2.39,0,0,1,1.61-.56,2.7,2.7,0,0,1,1,.17A2.1,2.1,0,0,1,19.49,22a2.06,2.06,0,0,1,1-.19,3,3,0,0,1,1.13.24,2.46,2.46,0,0,1,1.35,2.69,1,1,0,0,1,.25,0,2.69,2.69,0,0,1,2.68,2.68,2.52,2.52,0,0,1-.32,1.27,4.32,4.32,0,0,0,2.33.61,1.54,1.54,0,0,0,1.1-.47c.07-.11.12-.21.07-.29l-1.9-2.12s-.31-.3-.21-.41.31.05.43.18c1,.81,2.17,2,2.17,2s.1.18.54.26a2,2,0,0,0,1.51-.36,1.77,1.77,0,0,0,.33-.34l0,0a1,1,0,0,0-.07-1.27L29.57,24s-.31-.3-.21-.41.31.05.44.18c.7.58,1.71,1.58,2.65,2.52a1.81,1.81,0,0,0,2.13-.08,1.53,1.53,0,0,0,.78-1.4,1.65,1.65,0,0,0-.47-.92l-3.05-3.06s-.31-.28-.21-.41.31,0,.44.17c1,.81,3.61,3.21,3.61,3.21a1.86,1.86,0,0,0,2.06,0,1.4,1.4,0,0,0,.68-1.09,1.61,1.61,0,0,0-.5-1.26c-.08-.08-7.72-6.75-9.43-8a4.29,4.29,0,0,0-2.15-1,3,3,0,0,0-1,.09,9.67,9.67,0,0,0-2.78,1.66,7.7,7.7,0,0,1-2.7,1.69,4.35,4.35,0,0,1-3-.46,1.38,1.38,0,0,1-.5-.53,1,1,0,0,1,.25-1l2.1-2.3c.26-.23.49-.49.74-.73a14.17,14.17,0,0,0-1.92.44,7.8,7.8,0,0,1-2.23.41,17.38,17.38,0,0,1-2.3-.36A34.36,34.36,0,0,1,6.91,9.11a13.4,13.4,0,0,0-5.53,8.12M25.91,8.7c-3.57.09-5.12,1.64-6.75,3.31l-2.08,2.27s-.25.26-.1.46a2.89,2.89,0,0,0,2.71.48,7.86,7.86,0,0,0,2.45-1.57,10.12,10.12,0,0,1,2.8-1.82A3.26,3.26,0,0,1,27,11.78a6.17,6.17,0,0,1,1.87,1.09c1.63,1.22,8.18,6.94,9.32,7.91a55.71,55.71,0,0,1,10.45-3.41,13,13,0,0,0-5-7.81c-3.76,1.6-8.37,2.45-12.88.24a12.87,12.87,0,0,0-4.7-1.1h-.17"/></clipPath><clipPath id="clip-path-4"><path class="cls-1" d="M12.27,22.57a1.5,1.5,0,0,1,3-.19l.05.41.23-.34a2.22,2.22,0,0,1,1.77-1,1.8,1.8,0,0,1,.64.09A1.54,1.54,0,0,1,19,23c0,.21.15.21.18.21s.13-.06.18-.08a1.51,1.51,0,0,1,1.1-.48,2.05,2.05,0,0,1,.83.2c1.42.6.77,2.41.77,2.44-.12.31-.12.44,0,.51l.06,0h.05a1,1,0,0,0,.28-.08,2.49,2.49,0,0,1,.77-.17,2,2,0,0,1,2,1.94,2,2,0,0,1-2,1.88,1.94,1.94,0,0,1-2-1.86c0-.07,0-.33-.21-.33a.34.34,0,0,0-.23.13,1.27,1.27,0,0,1-.95.43,1.45,1.45,0,0,1-.62-.15c-1.11-.45-1.12-1.2-1.07-1.51a.27.27,0,0,0,0-.23l-.08-.05H18a.38.38,0,0,0-.18.08,1.59,1.59,0,0,1-.94.35,1.34,1.34,0,0,1-.52-.1,2,2,0,0,1-1.27-2.36c0-.08,0-.16-.05-.18l-.11-.08-.1.11a1.43,1.43,0,0,1-1.05.42h0a1.52,1.52,0,0,1-1.49-1.5M26.11,7.9H25.9A8.84,8.84,0,0,0,20.16,10a11.5,11.5,0,0,0-2.86.52,6.54,6.54,0,0,1-2,.39H14.5a37.92,37.92,0,0,1-7.27-2c-.3.21-.58.42-.87.66a36,36,0,0,0,7.89,2.25l1,.06a8.67,8.67,0,0,0,2.29-.44A10.69,10.69,0,0,1,19,11a5.42,5.42,0,0,0-.4.42l-2.09,2.27a1.08,1.08,0,0,0-.29,1.16,1.49,1.49,0,0,0,.54.62,4.56,4.56,0,0,0,2.23.56,4.36,4.36,0,0,0,.9-.09,8.54,8.54,0,0,0,2.79-1.71,9.35,9.35,0,0,1,2.73-1.66,4.19,4.19,0,0,1,.78-.11.71.71,0,0,1,.2,0,4.21,4.21,0,0,1,2.08,1c1.71,1.3,9.37,8,9.44,8a1.47,1.47,0,0,1,.46,1.12,1.25,1.25,0,0,1-.61,1,1.87,1.87,0,0,1-1,.32,1.74,1.74,0,0,1-.88-.24s-2.66-2.42-3.62-3.21a1.06,1.06,0,0,0-.44-.25.26.26,0,0,0-.21.1c-.15.19,0,.44.22.62L34.86,24a1.41,1.41,0,0,1,.42.82,1.38,1.38,0,0,1-.73,1.27,1.78,1.78,0,0,1-1.08.35,1.58,1.58,0,0,1-.88-.27l-.44-.43c-.81-.79-1.64-1.61-2.24-2.12a.8.8,0,0,0-.47-.23.24.24,0,0,0-.18.09c-.08.07-.12.2.06.43a1.2,1.2,0,0,0,.16.18l2.24,2.5a.83.83,0,0,1,.07,1.06l-.08.1-.2.21a1.77,1.77,0,0,1-1.08.35,1.56,1.56,0,0,1-.31,0,.87.87,0,0,1-.44-.18l0,0c-.13-.13-1.25-1.27-2.19-2a.74.74,0,0,0-.44-.22.24.24,0,0,0-.2.08c-.18.2.08.51.21.61l1.91,2.09s0,.06-.08.13-.3.32-1,.43l-.26,0a4.14,4.14,0,0,1-1.86-.55A3,3,0,0,0,26,27.46a2.81,2.81,0,0,0-2.85-2.83h-.1A2.54,2.54,0,0,0,21.64,22a3.19,3.19,0,0,0-1.19-.26,2.32,2.32,0,0,0-.87.16,2.33,2.33,0,0,0-1.38-1.17,3.1,3.1,0,0,0-1-.17A2.78,2.78,0,0,0,15.6,21a2.48,2.48,0,0,0-1.87-.91,2.37,2.37,0,0,0-1.69.72c-.6-.45-2.93-1.92-9.24-3.34-.31-.07-1-.27-1.42-.4-.07.34-.12.68-.17,1l1.4.32c6.43,1.41,8.54,2.89,8.9,3.16a2.62,2.62,0,0,0-.19.94A2.38,2.38,0,0,0,13.71,25a2.12,2.12,0,0,0,.44,0A2.8,2.8,0,0,0,16,27a2.37,2.37,0,0,0,.85.16,3.51,3.51,0,0,0,.55-.05,2.73,2.73,0,0,0,2.44,1.59,2.42,2.42,0,0,0,.74-.14,2.79,2.79,0,0,0,2.62,1.75,2.74,2.74,0,0,0,2-.88,5.46,5.46,0,0,0,2.41.72,1.42,1.42,0,0,0,.36,0,2.11,2.11,0,0,0,1.61-.79.86.86,0,0,0,.1-.16,2.13,2.13,0,0,0,.78.12A2.59,2.59,0,0,0,32,28.75a2.17,2.17,0,0,0,.91-1.33v0a2.92,2.92,0,0,0,.51,0A2.78,2.78,0,0,0,35,26.93a2.26,2.26,0,0,0,1.14-2.05c.18,0,.36.05.51.05a3,3,0,0,0,1.49-.46,2.21,2.21,0,0,0,1-1.69,2.29,2.29,0,0,0-.33-1.37,65.56,65.56,0,0,1,9.89-3.14c0-.33-.09-.69-.14-1A55.71,55.71,0,0,0,38.3,20.62c-2.35-2-7.82-6.77-9.27-7.86a6.51,6.51,0,0,0-1.92-1.11,2.85,2.85,0,0,0-.93-.14A3.83,3.83,0,0,0,25,11.7a9.86,9.86,0,0,0-2.82,1.79l-.05,0a7.39,7.39,0,0,1-2.4,1.53,5.15,5.15,0,0,1-.9.11,2.32,2.32,0,0,1-1.68-.52c-.06-.05,0-.13.07-.26l0,0,2.06-2.24C20.91,10.49,22.44,9,26,8.85h.18a12.7,12.7,0,0,1,4.62,1.08,14.38,14.38,0,0,0,6.31,1.49A16.5,16.5,0,0,0,44,9.74a10.44,10.44,0,0,0-.83-.66,15.14,15.14,0,0,1-6.09,1.39,13.63,13.63,0,0,1-5.92-1.4,13.23,13.23,0,0,0-5-1.17Z"/></clipPath></defs><g class="cls-2"><rect class="cls-3" x="-3.81" y="-1.26" width="57.63" height="42.52"/></g><g class="cls-4"><rect class="cls-5" x="-0.21" y="0.37" width="53.04" height="37.4"/></g><g class="cls-6"><rect class="cls-7" x="0.27" y="4.61" width="49.44" height="28.98"/></g><g class="cls-8"><rect class="cls-3" x="-2.87" y="3.81" width="55.72" height="30.61"/></g></svg>