<svg id="Capa_1" data-name="Capa 1" xmlns="http://www.w3.org/2000/svg" xmlns:xlink="http://www.w3.org/1999/xlink" viewBox="0 0 135 40"><defs><style>.cls-1{fill:none;}.cls-2{clip-path:url(#clip-path);}.cls-3{fill:#2a3375;}.cls-4{clip-path:url(#clip-path-2);}.cls-5{clip-path:url(#clip-path-3);}.cls-6{clip-path:url(#clip-path-4);}.cls-7{clip-path:url(#clip-path-5);}.cls-8{clip-path:url(#clip-path-6);}.cls-9{clip-path:url(#clip-path-7);}.cls-10{clip-path:url(#clip-path-8);}.cls-11{clip-path:url(#clip-path-9);}.cls-12{clip-path:url(#clip-path-10);}.cls-13{clip-path:url(#clip-path-11);}.cls-14{clip-path:url(#clip-path-12);}.cls-15{clip-path:url(#clip-path-13);}.cls-16{fill:#ffe600;}.cls-17{clip-path:url(#clip-path-14);}.cls-18{fill:#fff;}.cls-19{clip-path:url(#clip-path-15);}</style><clipPath id="clip-path"><path class="cls-1" d="M127.57,15.92a4,4,0,0,1-.67-2.49,4,4,0,0,1,.67-2.48,2.52,2.52,0,0,1,3.81,0,4,4,0,0,1,.66,2.48,4.06,4.06,0,0,1-.66,2.49,2.5,2.5,0,0,1-3.81,0m-2.24-6.51a6.25,6.25,0,0,0-1.36,4,6.17,6.17,0,0,0,1.36,4,6,6,0,0,0,8.3,0,6.18,6.18,0,0,0,1.37-4,6.26,6.26,0,0,0-1.37-4,5.92,5.92,0,0,0-8.3,0"/></clipPath><clipPath id="clip-path-2"><path class="cls-1" d="M105.9,16.75a1.24,1.24,0,0,1-.4-1,1.31,1.31,0,0,1,.65-1.21,4.1,4.1,0,0,1,1.28-.38l.64-.12a4.44,4.44,0,0,0,.74-.2,2.72,2.72,0,0,0,.54-.27v1.05a2.3,2.3,0,0,1-.8,2,2.84,2.84,0,0,1-1.67.54,1.49,1.49,0,0,1-1-.33m-2.06-7.61a4.24,4.24,0,0,0-.78,2.34h2.68a2.13,2.13,0,0,1,.4-1,1.73,1.73,0,0,1,1.41-.5,2.86,2.86,0,0,1,1.35.26,1,1,0,0,1,.46.92.85.85,0,0,1-.6.8,4.39,4.39,0,0,1-1.11.25l-1,.12a6.66,6.66,0,0,0-2.46.7,3.09,3.09,0,0,0-1.52,2.89,3,3,0,0,0,1,2.37,3.67,3.67,0,0,0,2.39.84c6.07.28,6-3.25,6.06-4V11.08a2.75,2.75,0,0,0-1.36-2.67,6.83,6.83,0,0,0-3.12-.7,4.54,4.54,0,0,0-3.8,1.43"/></clipPath><clipPath id="clip-path-3"><path class="cls-1" d="M93.08,9.26a6.23,6.23,0,0,0-1.39,4.33,6.15,6.15,0,0,0,1.26,4,4.78,4.78,0,0,0,3.93,1.55,4.72,4.72,0,0,0,5-4.3h-3a2.64,2.64,0,0,1-.52,1.39,1.75,1.75,0,0,1-1.45.54,1.93,1.93,0,0,1-2-1.35,5.29,5.29,0,0,1-.29-1.91,5.76,5.76,0,0,1,.29-2,2,2,0,0,1,2-1.42,1.77,1.77,0,0,1,1.52.66,2.54,2.54,0,0,1,.42,1.09h3a4.2,4.2,0,0,0-1.57-3.23,5.94,5.94,0,0,0-3.41-.91,4.91,4.91,0,0,0-3.84,1.55"/></clipPath><clipPath id="clip-path-4"><path class="cls-1" d="M85.15,13.18v5.56h2.78V13.53a4.34,4.34,0,0,1,.32-1.9,2.27,2.27,0,0,1,2.23-1.1h.33c.14,0,.29,0,.47.05V7.73l-.24,0h-.13c-6.12,0-5.76,5.47-5.76,5.47"/></clipPath><clipPath id="clip-path-5"><path class="cls-1" d="M76.94,10.65A2.2,2.2,0,0,1,78.61,10a2.44,2.44,0,0,1,1.66.58,2.35,2.35,0,0,1,.74,1.7H76.19a2.91,2.91,0,0,1,.75-1.67M74.78,9.21A5.81,5.81,0,0,0,73.3,13.5a5.24,5.24,0,0,0,1.64,4.32,5.75,5.75,0,0,0,3.77,1.33,5.19,5.19,0,0,0,4-1.57,3.85,3.85,0,0,0,1-1.64h-3a2.33,2.33,0,0,1-.39.43,2.4,2.4,0,0,1-1.58.43,2.68,2.68,0,0,1-1.5-.36,2.58,2.58,0,0,1-1.14-2.26h7.8A15.28,15.28,0,0,0,83.83,12,5.46,5.46,0,0,0,83,9.81a4.4,4.4,0,0,0-1.86-1.6,6.11,6.11,0,0,0-2.51-.5,5.13,5.13,0,0,0-3.83,1.5"/></clipPath><clipPath id="clip-path-6"><path class="cls-1" d="M64.54,9.19A3.88,3.88,0,0,0,61.4,7.71,4.36,4.36,0,0,0,57,12.37v6.37h2.52V12.31a1.86,1.86,0,0,1,1.92-2,1.77,1.77,0,0,1,1.84,2v6.43h2.53V12.31a1.87,1.87,0,0,1,1.92-2,1.79,1.79,0,0,1,1.86,2v6.43h2.52V12.37c0-2.73-1.62-4.66-4.38-4.66a4,4,0,0,0-3.15,1.48"/></clipPath><clipPath id="clip-path-7"><path class="cls-1" d="M116.74,16a4.65,4.65,0,0,1-.57-2.45,4.4,4.4,0,0,1,.56-2.3,1.93,1.93,0,0,1,1.77-.93,2.07,2.07,0,0,1,1.38.51,3.71,3.71,0,0,1,1,2.88,4,4,0,0,1-.61,2.29,2,2,0,0,1-1.77.89,1.93,1.93,0,0,1-1.74-.89m4-9.54v3a3.34,3.34,0,0,0-1.21-1.18,3.24,3.24,0,0,0-1.69-.43,4,4,0,0,0-3.3,1.57,7,7,0,0,0-1.24,4.39,5.93,5.93,0,0,0,1.26,3.9,5.26,5.26,0,0,0,3.93,1.45c5.09,0,5-4.45,5-4.45V4.45h-.32c-.73,0-2.46.19-2.46,2"/></clipPath><clipPath id="clip-path-8"><path class="cls-1" d="M87.56,27.3a2.25,2.25,0,0,1,1.67-.6,2.48,2.48,0,0,1,1.66.57,2.22,2.22,0,0,1,.75,1.64H86.81a2.73,2.73,0,0,1,.75-1.61M85.4,25.9a5.58,5.58,0,0,0-1.48,4.15,5,5,0,0,0,1.64,4.16,5.91,5.91,0,0,0,3.77,1.28,5.29,5.29,0,0,0,4-1.51,3.72,3.72,0,0,0,1-1.58h-3a2.19,2.19,0,0,1-.39.41,2.53,2.53,0,0,1-1.6.44,2.7,2.7,0,0,1-1.49-.35,2.45,2.45,0,0,1-1.12-2.2h7.8a12.66,12.66,0,0,0-.1-2.06,4.94,4.94,0,0,0-.85-2.15A4.36,4.36,0,0,0,91.75,25a6.19,6.19,0,0,0-2.52-.49A5.25,5.25,0,0,0,85.4,25.9"/></clipPath><clipPath id="clip-path-9"><path class="cls-1" d="M69.66,32.31a4,4,0,0,1-.6-2.29,3.55,3.55,0,0,1,1-2.81,2.07,2.07,0,0,1,1.38-.51,1.92,1.92,0,0,1,1.77.93,4.43,4.43,0,0,1,.56,2.3,4.37,4.37,0,0,1-.57,2.38,1.93,1.93,0,0,1-1.74.89,2,2,0,0,1-1.77-.89m-3.31-9.49V31s0,4.45,5,4.45A5.23,5.23,0,0,0,75.31,34a5.9,5.9,0,0,0,1.26-3.9,6.78,6.78,0,0,0-1.24-4.31A4,4,0,0,0,72,24.26a3.26,3.26,0,0,0-2.9,1.61V20.8a1.58,1.58,0,0,0-.28,0c-.7,0-2.5.19-2.5,2"/></clipPath><clipPath id="clip-path-10"><path class="cls-1" d="M77.39,29.57v5.52h2.78V29.92A4.32,4.32,0,0,1,80.49,28a2.27,2.27,0,0,1,2.23-1.1h.33l.47,0V24.07h-.37c-6.12,0-5.76,5.52-5.76,5.52"/></clipPath><clipPath id="clip-path-11"><path class="cls-1" d="M57,22.79v12.3h2.45V20.79h-.06c-.37,0-2.39.09-2.39,2"/></clipPath><clipPath id="clip-path-12"><path class="cls-1" d="M24.67,2.83C11,2.87,0,10.18,0,19.13v1c0,9.49,9.72,17.14,24.76,17.08s24.7-7.76,24.69-17.23c0-.34,0-.52,0-1,0-8.9-11.06-16.15-24.66-16.15Z"/></clipPath><clipPath id="clip-path-13"><path class="cls-1" d="M24.87,3.67c-13,0-23.53,7-23.51,15.47S12,34.51,25,34.47s23.53-7,23.51-15.47S37.93,3.67,25,3.67Z"/></clipPath><clipPath id="clip-path-14"><path class="cls-1" d="M13.47,20.85a1.67,1.67,0,0,0,0,3.33,1.76,1.76,0,0,0,1.16-.48,0,0,0,0,1,0,.05A2.18,2.18,0,0,0,16,26.26,1.57,1.57,0,0,0,17.59,26c.13-.1.16-.05.13.08a1.56,1.56,0,0,0,1.18,1.66,1.51,1.51,0,0,0,1.74-.33c.16-.13.18-.11.21.1a2.09,2.09,0,0,0,4.17-.1,2.12,2.12,0,0,0-2.11-2.07,5.91,5.91,0,0,0-1.05.25s0-.21.07-.34.67-2-.85-2.62A1.79,1.79,0,0,0,19,23c-.07.08-.1.05-.1,0a1.66,1.66,0,0,0-1.18-1.55,2.26,2.26,0,0,0-2.58.93,1.64,1.64,0,0,0-1.62-1.45ZM1.11,17.23a13.15,13.15,0,0,0,1.42.37c6.75,1.49,8.88,3,9.24,3.37a2.27,2.27,0,0,1,1.67-.77,2.23,2.23,0,0,1,1.83,1,2.43,2.43,0,0,1,1.62-.56,2.74,2.74,0,0,1,1,.17A2.1,2.1,0,0,1,19.22,22a2,2,0,0,1,1-.19A3,3,0,0,1,21.3,22a2.44,2.44,0,0,1,1.34,2.69,1.13,1.13,0,0,1,.26,0,2.69,2.69,0,0,1,2.68,2.68,2.52,2.52,0,0,1-.32,1.27,4.31,4.31,0,0,0,2.32.61,1.52,1.52,0,0,0,1.1-.47c.08-.11.13-.21.08-.29l-1.9-2.12s-.32-.3-.21-.41.3.05.43.18c1,.81,2.16,2,2.16,2s.11.18.55.26a2,2,0,0,0,1.51-.36,2.13,2.13,0,0,0,.33-.34l0,0a1,1,0,0,0-.06-1.27L29.29,24s-.31-.3-.2-.41.3.05.43.18c.7.58,1.72,1.58,2.66,2.52a1.8,1.8,0,0,0,2.13-.08,1.53,1.53,0,0,0,.78-1.4,1.65,1.65,0,0,0-.47-.92l-3-3.06s-.31-.28-.21-.41.31,0,.44.17c1,.81,3.61,3.21,3.61,3.21a1.86,1.86,0,0,0,2.06,0,1.4,1.4,0,0,0,.68-1.09,1.61,1.61,0,0,0-.5-1.26c-.08-.08-7.72-6.75-9.43-8a4.33,4.33,0,0,0-2.15-1,3,3,0,0,0-1,.09,9.67,9.67,0,0,0-2.78,1.66,7.64,7.64,0,0,1-2.71,1.69,4.33,4.33,0,0,1-3-.46,1.31,1.31,0,0,1-.5-.53,1,1,0,0,1,.25-1l2.1-2.3c.26-.23.48-.49.74-.73a14.17,14.17,0,0,0-1.92.44,7.8,7.8,0,0,1-2.24.41,17.24,17.24,0,0,1-2.29-.36A34.36,34.36,0,0,1,6.64,9.11a13.4,13.4,0,0,0-5.53,8.12M25.64,8.7c-3.57.09-5.12,1.64-6.75,3.31l-2.08,2.27s-.25.26-.1.46a2.89,2.89,0,0,0,2.71.48,7.86,7.86,0,0,0,2.45-1.57,10.12,10.12,0,0,1,2.8-1.82,3.26,3.26,0,0,1,2.06-.05,6.17,6.17,0,0,1,1.87,1.09c1.63,1.22,8.18,6.94,9.32,7.91a55.42,55.42,0,0,1,10.45-3.41,13.09,13.09,0,0,0-5-7.81C39.63,11.16,35,12,30.51,9.8a12.87,12.87,0,0,0-4.7-1.1h-.17"/></clipPath><clipPath id="clip-path-15"><path class="cls-1" d="M12,22.57a1.49,1.49,0,0,1,3-.19l.06.41.23-.34a2.2,2.2,0,0,1,1.76-1,1.83,1.83,0,0,1,.65.09A1.54,1.54,0,0,1,18.75,23c0,.21.16.21.19.21s.12-.06.18-.08a1.49,1.49,0,0,1,1.1-.48,2,2,0,0,1,.82.2c1.43.6.78,2.41.78,2.44-.12.31-.12.44,0,.51l.05,0h.06a1,1,0,0,0,.28-.08,2.43,2.43,0,0,1,.77-.17,2,2,0,0,1,1.95,1.94,2,2,0,0,1-2,1.88A1.93,1.93,0,0,1,21,27.54c0-.07,0-.33-.21-.33a.32.32,0,0,0-.23.13,1.27,1.27,0,0,1-.95.43,1.41,1.41,0,0,1-.62-.15c-1.11-.45-1.12-1.2-1.08-1.51a.24.24,0,0,0,0-.23l-.08-.05h-.08a.38.38,0,0,0-.18.08,1.59,1.59,0,0,1-.95.35,1.32,1.32,0,0,1-.51-.1,2,2,0,0,1-1.27-2.36c0-.08,0-.16-.05-.18l-.11-.08-.1.11a1.43,1.43,0,0,1-1.05.42h0A1.51,1.51,0,0,1,12,22.57M25.84,7.9h-.21A8.84,8.84,0,0,0,19.89,10a11.5,11.5,0,0,0-2.86.52,6.59,6.59,0,0,1-2,.39h-.77A37.73,37.73,0,0,1,7,8.85c-.3.21-.59.42-.87.66A36,36,0,0,0,14,11.76l1,.06a8.52,8.52,0,0,0,2.28-.44A11.24,11.24,0,0,1,18.71,11a5.48,5.48,0,0,0-.41.42l-2.08,2.27a1.09,1.09,0,0,0-.3,1.16,1.6,1.6,0,0,0,.55.62,4.56,4.56,0,0,0,2.23.56,4.43,4.43,0,0,0,.9-.09,8.54,8.54,0,0,0,2.79-1.71,9.22,9.22,0,0,1,2.73-1.66,4.08,4.08,0,0,1,.77-.11.75.75,0,0,1,.21,0,4.15,4.15,0,0,1,2.07,1c1.72,1.3,9.38,8,9.45,8a1.44,1.44,0,0,1,.45,1.12,1.26,1.26,0,0,1-.6,1,1.87,1.87,0,0,1-1,.32,1.69,1.69,0,0,1-.88-.24S32.93,21.28,32,20.49a1.06,1.06,0,0,0-.44-.25.25.25,0,0,0-.21.1c-.15.19,0,.44.22.62L34.59,24a1.41,1.41,0,0,1,.42.82,1.38,1.38,0,0,1-.73,1.27,1.78,1.78,0,0,1-1.08.35,1.58,1.58,0,0,1-.88-.27l-.44-.43c-.81-.79-1.65-1.61-2.24-2.12a.83.83,0,0,0-.47-.23.24.24,0,0,0-.18.09c-.08.07-.13.2.06.43a.92.92,0,0,0,.15.18l2.25,2.5a.84.84,0,0,1,.06,1.06l-.07.1-.21.21a1.73,1.73,0,0,1-1.07.35,1.56,1.56,0,0,1-.31,0,.79.79,0,0,1-.44-.18l0,0c-.13-.13-1.25-1.27-2.19-2a.77.77,0,0,0-.44-.22.24.24,0,0,0-.2.08c-.18.2.08.51.21.61l1.91,2.09s0,.06-.08.13-.31.32-1,.43l-.26,0a4.18,4.18,0,0,1-1.87-.55,2.86,2.86,0,0,0,.28-1.21,2.82,2.82,0,0,0-2.85-2.83h-.1A2.54,2.54,0,0,0,21.37,22a3.19,3.19,0,0,0-1.19-.26,2.32,2.32,0,0,0-.87.16,2.33,2.33,0,0,0-1.38-1.17,3.1,3.1,0,0,0-1-.17,2.78,2.78,0,0,0-1.59.51,2.5,2.5,0,0,0-1.87-.91,2.37,2.37,0,0,0-1.69.72c-.6-.45-2.93-1.92-9.24-3.34-.31-.07-1-.27-1.42-.4-.07.34-.12.68-.17,1l1.4.32c6.43,1.41,8.53,2.89,8.9,3.16a2.86,2.86,0,0,0-.2.94A2.39,2.39,0,0,0,13.44,25a2.12,2.12,0,0,0,.44,0A2.8,2.8,0,0,0,15.71,27a2.33,2.33,0,0,0,.85.16,3.29,3.29,0,0,0,.54-.05,2.56,2.56,0,0,0,1.49,1.4,2.28,2.28,0,0,0,1.7,0,2.81,2.81,0,0,0,4.65.87,5.41,5.41,0,0,0,2.4.72,1.34,1.34,0,0,0,.36,0,2.11,2.11,0,0,0,1.62-.79c0-.05.07-.1.1-.16a2.11,2.11,0,0,0,.77.12,2.56,2.56,0,0,0,1.54-.56,2.09,2.09,0,0,0,.91-1.33v0a3.12,3.12,0,0,0,.52,0,2.78,2.78,0,0,0,1.59-.51,2.26,2.26,0,0,0,1.14-2.05c.18,0,.36.05.51.05a3,3,0,0,0,1.49-.46,2.24,2.24,0,0,0,1-1.69,2.37,2.37,0,0,0-.33-1.37,65.73,65.73,0,0,1,9.88-3.14c0-.33-.08-.69-.14-1A56.3,56.3,0,0,0,38,20.62c-2.34-2-7.81-6.77-9.26-7.86a6.51,6.51,0,0,0-1.92-1.11,2.89,2.89,0,0,0-.93-.14,3.93,3.93,0,0,0-1.19.19,9.82,9.82,0,0,0-2.81,1.79l-.05,0a7.5,7.5,0,0,1-2.4,1.53,5.4,5.4,0,0,1-.9.11,2.32,2.32,0,0,1-1.68-.52c-.06-.05,0-.13.07-.26l0,0L19,12.11C20.64,10.49,22.17,9,25.7,8.85h.18A12.7,12.7,0,0,1,30.5,9.93a14.34,14.34,0,0,0,6.31,1.49,16.5,16.5,0,0,0,6.91-1.68,10.44,10.44,0,0,0-.83-.66,15.15,15.15,0,0,1-6.1,1.39,13.62,13.62,0,0,1-5.91-1.4,13.35,13.35,0,0,0-5-1.17Z"/></clipPath></defs><g class="cls-2"><rect class="cls-3" x="119.88" y="3.62" width="19.2" height="19.61"/></g><g class="cls-4"><rect class="cls-3" x="98.63" y="3.62" width="17.57" height="19.61"/></g><g class="cls-5"><rect class="cls-3" x="87.6" y="3.62" width="18.39" height="19.61"/></g><g class="cls-6"><rect class="cls-3" x="81.06" y="3.62" width="14.3" height="19.2"/></g><g class="cls-7"><rect class="cls-3" x="69.21" y="3.62" width="18.8" height="19.61"/></g><g class="cls-8"><rect class="cls-3" x="52.87" y="3.62" width="23.29" height="19.2"/></g><g class="cls-9"><rect class="cls-3" x="109.26" y="0.35" width="18.39" height="22.88"/></g><g class="cls-10"><rect class="cls-3" x="79.84" y="20.38" width="18.8" height="19.21"/></g><g class="cls-11"><rect class="cls-3" x="62.27" y="16.7" width="18.39" height="22.88"/></g><g class="cls-12"><rect class="cls-3" x="73.3" y="19.97" width="14.3" height="19.2"/></g><g class="cls-13"><rect class="cls-3" x="52.87" y="16.7" width="10.62" height="22.47"/></g><rect class="cls-3" x="61.45" y="20.79" width="2.86" height="2.86"/><rect class="cls-3" x="61.45" y="24.46" width="2.86" height="10.62"/><g class="cls-14"><rect class="cls-3" x="-4.08" y="-1.26" width="57.63" height="42.52"/></g><g class="cls-15"><rect class="cls-16" x="-0.48" y="0.37" width="53.04" height="37.4"/></g><g class="cls-17"><rect class="cls-18" y="4.61" width="49.44" height="28.98"/></g><g class="cls-19"><rect class="cls-3" x="-3.15" y="3.81" width="55.72" height="30.61"/></g></svg>