<svg width="80" height="80" viewBox="0 0 80 80" fill="none" xmlns="http://www.w3.org/2000/svg">
<mask id="mask0" mask-type="alpha" maskUnits="userSpaceOnUse" x="0" y="0" width="80" height="80">
<path d="M80 0H0V80H80V0Z" fill="white"/>
</mask>
<g mask="url(#mask0)">
<path d="M80 0H0V80H80V0Z" fill="white"/>
<path d="M34.3367 37.6259C34.3108 37.7046 34.2365 37.7577 34.1531 37.7577H26.5519L32.7096 42.171C32.7727 42.2168 32.8581 42.2204 32.9248 42.1783C34.628 41.1331 36.1178 40.4082 39.2848 39.59C39.2848 39.59 34.4258 43.1814 31.2439 47.2049C31.1734 47.2927 31.1196 47.3916 31.0862 47.4978L30.4239 49.5095L36.5742 45.1016C36.641 45.0522 36.7338 45.0522 36.8006 45.1016L42.9509 49.5095L40.6021 42.376C40.5761 42.2973 40.6039 42.2113 40.6726 42.1637L46.8229 37.7558H39.2217C39.1383 37.7558 39.064 37.7028 39.0381 37.624L36.6893 30.4906L34.3367 37.6259Z" fill="url(#paint0_linear)"/>
<path d="M73.9996 39.2586H69.2073V34.5304H66.6637V39.2586H61.8733V41.695H66.6637V46.4231H69.2073V41.695H73.9996V39.2586Z" fill="#261E3C"/>
<path d="M53.2979 35.9088C54.5409 35.9088 55.335 36.5458 55.335 37.6002C55.335 38.7022 54.5409 39.4875 53.2979 39.4875H51.3109V35.9088H53.2979ZM54.8619 41.9861C56.9974 41.717 58.7618 39.903 58.7618 37.6002C58.7618 34.611 56.7005 32.9691 53.3721 32.9691H47.9323V48.0157H51.3109V42.0611L55.3591 48.0157H59.2831L54.8619 41.9861ZM27.793 32.9672H17.7336V36.0059H21.0379V48.0139H24.4906V36.0059H27.7949V32.9672H27.793ZM11.3791 38.4825C10.4107 38.0414 10.0378 37.5764 10.0378 36.9632C10.0378 36.253 10.6593 35.6635 11.5777 35.6892C12.4218 35.713 13.0433 36.1541 13.5146 37.2085L16.42 35.9583C15.6259 33.9484 14.01 32.7732 11.4033 32.7732C8.64628 32.7732 6.60915 34.5616 6.60915 36.9632C6.60915 38.6052 7.40322 39.9524 9.44035 40.9573L11.4775 41.9623C12.6203 42.5261 13.1658 42.9434 13.1658 43.7763C13.1658 44.6586 12.42 45.2956 11.4775 45.2956C10.4589 45.2956 9.54053 44.7318 9.11753 43.4578L6.03772 44.3401C6.73346 46.8149 8.7947 48.261 11.4775 48.261C14.3829 48.261 16.6185 46.4232 16.6185 43.7763C16.6185 41.7426 15.5257 40.3698 13.3142 39.3648L11.3791 38.4825Z" fill="#261E3C"/>
</g>
<defs>
<linearGradient id="paint0_linear" x1="27.4747" y1="50.8114" x2="45.4878" y2="32.5542" gradientUnits="userSpaceOnUse">
<stop stop-color="#FA1660"/>
<stop offset="0.28" stop-color="#FA1660"/>
<stop offset="0.78" stop-color="#FF6E00"/>
<stop offset="1" stop-color="#FF6E00"/>
</linearGradient>
</defs>
</svg>
